#!OML:ASF F:\VICON\USERDATA\INSTALL\rory3\rory3.ASF
:FULLY-SPECIFIED
:DEGREES
428
root 0.1637 17.1656 8.56411 12.4369 -5.21015 -8.59196
lowerback -9.9998 3.76811 9.72097
upperback -4.56417 4.07744 1.44885
thorax 1.35747 1.93824 -3.45916
lowerneck -15.7774 -3.74233 -7.72132
upperneck 24.8339 -4.74895 5.75562
head 10.952 -2.20684 2.71821
rclavicle -4.46675e-014 -2.92213e-014
rhumerus -32.2701 7.76026 -89.082
rradius 37.2027
rwrist 1.37537
rhand -24.8873 -48.3854
rfingers 7.12502
rthumb 1.62045 -78.359
lclavicle -4.46675e-014 -2.92213e-014
lhumerus -48.4037 -0.491176 83.0817
lradius 32.2393
lwrist 10.9719
lhand -32.5086 -27.5094
lfingers 7.12502
lthumb -5.7398 2.39286
rfemur 0.842401 7.22831 34.095
rtibia 13.3658
rfoot -15.7778 -4.85096
rtoes -5.63786
lfemur -43.4295 -3.4256 -8.35406
ltibia 23.1615
lfoot -7.76999 11.2179
ltoes -6.76239
429
root 0.178146 17.156 8.70396 12.5702 -5.48408 -8.45172
lowerback -9.97882 3.82442 9.71644
upperback -4.63925 4.16086 1.37647
thorax 1.28267 1.97378 -3.52509
lowerneck -15.5515 -3.47159 -7.30482
upperneck 24.6245 -4.37692 5.36084
head 10.7797 -2.04792 2.55651
rclavicle 5.2181e-015 -8.69683e-015
rhumerus -32.2804 7.68088 -89.23
rradius 36.9151
rwrist 1.60573
rhand -24.4006 -48.22
rfingers 7.12502
rthumb 2.09047 -78.1895
lclavicle 5.2181e-015 -8.69683e-015
lhumerus -48.41 -0.313376 82.9822
lradius 32.119
lwrist 11.0436
lhand -32.1088 -27.3268
lfingers 7.12502
lthumb -5.35377 2.58561
rfemur 1.19286 7.65256 33.7859
rtibia 13.3454
rfoot -15.7524 -4.24455
rtoes -3.20387
lfemur -43.37 -2.99221 -8.8744
ltibia 23.3839
lfoot -7.77439 11.0134
ltoes -5.65184
430
root 0.192006 17.1467 8.85163 12.6475 -5.68815 -8.35518
lowerback -9.9724 3.82461 9.7165
upperback -4.72587 4.16774 1.34149
thorax 1.19112 1.97032 -3.5643
lowerneck -15.4463 -3.43033 -7.21888
upperneck 24.5723 -4.3098 5.22088
head 10.7294 -2.02763 2.50082
rclavicle -6.12754e-014 -1.39149e-014
rhumerus -32.557 6.88967 -89.1902
rradius 37.0674
rwrist 2.4191
rhand -24.187 -48.1023
rfingers 7.12502
rthumb 2.29673 -78.0697
lclavicle -6.12754e-014 -1.39149e-014
lhumerus -48.6333 -0.152729 82.8931
lradius 32.2223
lwrist 11.1731
lhand -32.2986 -27.1832
lfingers 7.12502
lthumb -5.53707 2.72441
rfemur 1.59351 8.02278 33.5431
rtibia 13.4193
rfoot -15.7932 -3.81081
rtoes -2.11779
lfemur -43.2229 -2.75716 -9.28264
ltibia 23.7175
lfoot -7.53827 10.7983
ltoes -5.03654
431
root 0.20305 17.1312 8.99689 12.6503 -5.90927 -8.09717
lowerback -9.71291 3.80709 9.48431
upperback -4.92069 4.21064 1.2801
thorax 0.840381 1.97434 -3.51743
lowerneck -15.5068 -3.608 -7.48398
upperneck 24.7562 -4.53747 5.37639
head 10.8375 -2.13828 2.57139
rclavicle 2.31134e-014 2.33572e-015
rhumerus -32.9369 7.42676 -89.5398
rradius 36.781
rwrist 1.83085
rhand -24.7314 -48.0466
rfingers 7.12502
rthumb 1.77098 -78.019
lclavicle 2.31134e-014 2.33572e-015
lhumerus -48.9132 -0.0435623 82.8223
lradius 32.2135
lwrist 11.0868
lhand -32.6544 -26.8806
lfingers 7.12502
lthumb -5.88055 3.0178
rfemur 2.00176 8.13512 33.1733
rtibia 13.6332
rfoot -15.753 -3.96864
rtoes -5.82922
lfemur -43.0056 -2.52575 -9.90957
ltibia 24.1446
lfoot -7.21707 10.3954
ltoes -5.46838
432
root 0.222472 17.1194 9.18209 12.7459 -6.03943 -7.99486
lowerback -10.2407 3.8551 9.63239
upperback -4.95122 4.19828 1.2121
thorax 1.10829 1.97452 -3.64141
lowerneck -15.4928 -3.63546 -7.61473
upperneck 24.8967 -4.58044 5.49144
head 10.8967 -2.15766 2.63141
rclavicle -1.0166e-014 -7.45443e-015
rhumerus -33.2351 7.32293 -89.724
rradius 36.6067
rwrist 1.82853
rhand -24.6759 -48.4994
rfingers 7.12502
rthumb 1.82455 -78.4714
lclavicle -1.0166e-014 -7.45443e-015
lhumerus -49.0766 0.110348 82.6999
lradius 32.1371
lwrist 11.0005
lhand -32.574 -26.3149
lfingers 7.12502
lthumb -5.8029 3.58561
rfemur 2.41129 7.76953 32.8293
rtibia 13.8998
rfoot -15.8256 -3.61829
rtoes -9.26777
lfemur -42.7385 -2.19681 -10.544
ltibia 24.7438
lfoot -7.32813 9.60411
ltoes -6.50664
433
root 0.233426 17.1049 9.34164 12.8167 -6.4128 -8.03747
lowerback -10.4549 3.95913 9.74577
upperback -5.00219 4.30099 1.195
thorax 1.19284 2.02515 -3.69684
lowerneck -15.321 -3.56702 -7.63648
upperneck 25 -4.52822 5.61069
head 10.9004 -2.12512 2.68947
rclavicle 8.38685e-014 5.70512e-014
rhumerus -33.4151 6.80472 -89.7844
rradius 36.3738
rwrist 2.23704
rhand -24.3302 -48.7094
rfingers 7.12502
rthumb 2.15846 -78.6782
lclavicle 8.38685e-014 5.70512e-014
lhumerus -49.2698 0.193142 82.5854
lradius 32.2892
lwrist 11.0573
lhand -32.1618 -25.3214
lfingers 7.12502
lthumb -5.40494 4.58967
rfemur 2.69067 8.22679 32.7034
rtibia 14.2885
rfoot -15.6242 -3.35443
rtoes -10.0542
lfemur -42.4693 -1.77699 -10.8885
ltibia 25.3555
lfoot -7.357 8.73276
ltoes -7.56466
434
root 0.240772 17.0914 9.4892 12.9704 -6.88572 -8.17028
lowerback -10.4556 4.15427 9.84936
upperback -5.04929 4.55105 1.19483
thorax 1.18364 2.14601 -3.72106
lowerneck -15.5789 -3.61619 -7.68488
upperneck 25.2503 -4.60547 5.71468
head 11.0547 -2.14915 2.72619
rclavicle -3.21907e-014 -7.47927e-015
rhumerus -33.6819 6.35173 -89.7866
rradius 36.3434
rwrist 2.64881
rhand -24.1555 -48.4398
rfingers 7.12502
rthumb 2.32719 -78.4069
lclavicle -3.21907e-014 -7.47927e-015
lhumerus -49.1833 0.0883573 82.594
lradius 32.3088
lwrist 11.1496
lhand -31.7791 -24.9128
lfingers 7.12502
lthumb -5.03548 5.00737
rfemur 2.96758 8.90885 32.6759
rtibia 14.4741
rfoot -15.345 -3.01397
rtoes -9.22637
lfemur -42.3639 -1.15102 -11.1638
ltibia 26.0209
lfoot -6.94762 7.50234
ltoes -7.80371
435
root 0.255962 17.0973 9.65209 13.2672 -7.0734 -7.56437
lowerback -11.0547 4.2461 9.33073
upperback -4.91636 4.64619 1.00065
thorax 1.64599 2.2206 -3.58072
lowerneck -16.2674 -3.71286 -7.82958
upperneck 25.4553 -4.69891 5.86081
head 11.2838 -2.17663 2.7881
rclavicle -2.20294e-014 2.24627e-014
rhumerus -33.5713 6.07838 -89.7046
rradius 36.2808
rwrist 2.79081
rhand -24.0713 -48.4179
rfingers 7.12502
rthumb 2.40846 -78.384
lclavicle -2.20294e-014 2.24627e-014
lhumerus -48.5548 0.0614984 82.6643
lradius 31.8017
lwrist 10.9212
lhand -31.8549 -26.8169
lfingers 7.12502
lthumb -5.10861 3.10155
rfemur 3.06861 9.06606 31.8002
rtibia 14.5588
rfoot -14.8836 -2.76383
rtoes -11.1713
lfemur -42.5415 -0.952798 -12.2008
ltibia 26.5964
lfoot -6.2016 6.11737
ltoes -6.66568
436
root 0.27065 17.1115 9.82268 13.32 -7.09168 -7.15084
lowerback -11.4439 4.12307 8.97517
upperback -5.02025 4.48262 0.925838
thorax 1.70978 2.14133 -3.46678
lowerneck -15.7835 -3.51345 -7.75283
upperneck 25.3062 -4.47757 5.89675
head 11.1115 -2.07235 2.82291
rclavicle -2.7562e-014 2.2413e-014
rhumerus -33.808 6.21775 -89.9321
rradius 35.8048
rwrist 2.65489
rhand -24.2162 -48.3843
rfingers 7.12502
rthumb 2.26858 -78.352
lclavicle -2.7562e-014 2.2413e-014
lhumerus -48.5748 0.387268 82.4444
lradius 31.1102
lwrist 10.5525
lhand -31.9952 -28.4402
lfingers 7.12502
lthumb -5.24414 1.47487
rfemur 3.53738 9.16121 31.2242
rtibia 14.5347
rfoot -14.3576 -2.51348
rtoes -13.3061
lfemur -42.5805 -1.33802 -12.6494
ltibia 27.1282
lfoot -5.50488 5.16408
ltoes -4.86806
437
root 0.287332 17.1254 9.99735 13.21 -7.11967 -7.05227
lowerback -11.3305 4.06662 9.0019
upperback -5.21842 4.42883 0.931371
thorax 1.43298 2.09798 -3.49859
lowerneck -15.4814 -3.43103 -7.5725
upperneck 25.3279 -4.35039 5.59425
head 11.0379 -2.03913 2.70208
rclavicle -2.95756e-014 -1.37286e-014
rhumerus -34.2534 6.11783 -90.0357
rradius 35.2659
rwrist 2.86747
rhand -24.2964 -48.3364
rfingers 7.12502
rthumb 2.19113 -78.3049
lclavicle -2.95756e-014 -1.37286e-014
lhumerus -48.7327 0.408314 82.4384
lradius 30.6389
lwrist 10.4286
lhand -32.4241 -28.3019
lfingers 7.12502
lthumb -5.65824 1.60259
rfemur 4.18977 9.26668 30.9951
rtibia 14.5449
rfoot -13.9261 -2.04466
rtoes -14.2264
lfemur -42.4517 -2.01355 -12.5487
ltibia 27.6165
lfoot -4.85084 4.5585
ltoes -4.70362
